<svg xmlns="http://www.w3.org/2000/svg"  viewBox="0 0 64 64" width="85px" height="85px"><linearGradient id="1dkCe3XM0wAy2HlTYkn64a" x1="32.003" x2="32.003" y1="7.836" y2="56.339" gradientUnits="userSpaceOnUse"><stop offset="0" stop-color="#1a6dff"/><stop offset="1" stop-color="#c822ff"/></linearGradient><path fill="url(#1dkCe3XM0wAy2HlTYkn64a)" d="M62.753,38.727l-0.75-0.307c-0.245-0.101-0.504-0.15-0.76-0.15	c-0.143,0-0.286,0.015-0.426,0.046c-0.027-0.009-0.054-0.018-0.081-0.027c-0.268-0.314-0.632-0.545-1.05-0.647l-0.082-0.027	c-0.132-0.043-0.314-0.103-0.543-0.15c-0.476-0.279-0.944-0.454-1.418-0.526c-0.061-0.027-0.123-0.051-0.187-0.072	c-0.168-0.067-0.423-0.166-0.743-0.201c-0.112-0.012-0.259-0.036-0.325-0.079c-0.417-0.278-0.927-0.425-1.474-0.425	c-0.054,0-0.106,0.001-0.158,0.004c-0.04-0.016-0.122-0.053-0.258-0.134c-0.393-0.232-0.799-0.338-1.118-0.395	c-0.451-0.328-0.917-0.426-1.156-0.476c-0.402-0.109-0.647-0.153-0.932-0.205l-0.215-0.04c-0.082-0.016-0.186-0.05-0.318-0.093	c-0.173-0.057-0.389-0.128-0.649-0.186c-0.397-0.492-0.995-0.837-1.717-0.837c-0.118,0-0.255,0.012-0.372,0.033	c-0.158,0.028-0.302,0.072-0.433,0.125c-0.015-0.001-0.03-0.001-0.044-0.002c-0.054-0.031-0.11-0.06-0.166-0.088	c0.001-0.025,0.003-0.053,0.004-0.083c0.325-0.339,0.533-0.792,0.556-1.296l0.369-8.267c0.011-0.25-0.025-0.497-0.104-0.731	c0.091-0.355,0.083-0.729-0.025-1.082l0.024-0.535c0.01-0.222-0.017-0.444-0.08-0.658c-0.045-0.152-0.203-0.673-0.347-1.009	c-0.191-0.444-0.511-0.946-0.604-1.089c-0.266-0.408-0.67-0.702-1.134-0.832c-0.004-0.002-0.008-0.004-0.012-0.006l-0.001-0.018	c-0.02-0.287-0.1-0.556-0.227-0.796l-0.045-0.716c-0.066-1.05-0.934-1.869-1.986-1.874c-0.003,0-0.007,0-0.01,0	c-0.905,0-1.678,0.604-1.921,1.442c-0.495,0.338-0.83,0.894-0.869,1.531l-0.052,0.857c-0.038,0.07-0.072,0.143-0.102,0.219	l-0.157,0.399l-0.047,0.041c-0.332,0.292-0.557,0.685-0.642,1.119l-0.184,0.943l-0.067-0.307c0.037-0.482,0.1-1.4,0.098-1.939	c-0.001-0.285-0.001-0.441,0.281-1.041c0.148-0.315,0.212-0.664,0.184-1.012l-0.066-0.822c-0.014-0.178-0.052-0.353-0.113-0.521	c-0.343-0.947-0.551-1.254-0.62-1.355c-0.057-0.083-0.119-0.162-0.188-0.236c-0.055-0.059-0.116-0.119-0.193-0.184	c-0.008-0.013-0.017-0.025-0.025-0.038l-0.008-0.041c-0.162-0.828-0.823-1.456-1.639-1.59c-0.126-0.26-0.306-0.488-0.525-0.67	c-0.174-0.937-0.994-1.633-1.966-1.633c-0.006,0-0.013,0-0.019,0c-1.056,0.01-1.922,0.839-1.978,1.893l-0.089,1.678	c-0.144,0.243-0.235,0.514-0.267,0.796l-0.157,0.189c-0.295,0.356-0.458,0.803-0.46,1.266c-0.001,0.083-0.01,0.25-0.024,0.339	c-0.018,0.111-0.062,0.228-0.076,0.261c-0.136,0.288-0.189,0.579-0.178,0.897l0.028,0.792c0.001,0.022,0.004,0.044,0.005,0.065	l-0.149-0.686c0.105-0.333,0.121-0.691,0.043-1.037l-0.032-0.143c0.001-0.029,0.002-0.056,0.003-0.079	c0.003-0.073,0.011-0.246-0.036-0.832c-0.024-0.307-0.119-0.603-0.277-0.866c-0.048-0.274-0.153-0.532-0.305-0.76	c-0.025-0.221-0.085-0.431-0.176-0.624l-0.055-0.704c-0.05-0.641-0.399-1.193-0.904-1.521l-0.004-0.076	c-0.059-1.032-0.896-1.849-1.929-1.884C27.88,9,27.857,9,27.834,9c-1.004,0-1.857,0.747-1.983,1.75l-0.167,1.327	c-0.059,0.097-0.111,0.2-0.153,0.308c-0.532,0.217-0.836,0.524-0.984,0.676c-0.17,0.137-0.306,0.271-0.407,0.372	c-0.034,0.034-0.067,0.069-0.103,0.1c-0.412,0.348-0.809,0.726-1.138,1.486c-0.35,0.325-0.579,0.771-0.629,1.263l-0.095,0.934	c-0.003-0.004-0.005-0.009-0.008-0.013l-0.124-1.516c-0.084-1.034-0.945-1.832-1.982-1.838c-0.004,0-0.008,0-0.012,0	c-0.788,0-1.478,0.458-1.802,1.133c-0.351,0.116-0.662,0.327-0.899,0.608c-0.231,0.039-0.454,0.118-0.659,0.234	c0.001,0,0.001-0.001,0.001-0.001c-0.001,0-0.071,0.035-0.192,0.083c-0.038,0.008-0.073,0.015-0.079,0.016	c-0.315,0.061-0.613,0.198-0.864,0.397l-0.468,0.371c-0.448,0.356-0.723,0.887-0.754,1.458l-0.018,0.335l-0.193,0.421	c-0.116,0.253-0.178,0.527-0.182,0.805l-0.009,0.627c-0.001,0.094,0.004,0.188,0.016,0.281c-0.002,0.036-0.003,0.071-0.003,0.108	L13.943,20.9c0,0.051,0.001,0.102,0.005,0.152c-0.004,0.053-0.006,0.107-0.006,0.16v1.498l-0.308,1.245	c-0.036,0.147-0.056,0.297-0.058,0.447c-0.059-0.015-0.127-0.032-0.206-0.053c-0.182-0.048-0.328-0.073-0.482-0.095	c-0.003,0-0.005-0.001-0.007-0.001c-0.109-0.099-0.201-0.173-0.266-0.218c-0.211-0.149-0.425-0.248-0.627-0.315	c-0.415-0.573-1.047-0.81-1.483-0.857c-0.071-0.008-0.143-0.012-0.214-0.012c-0.245,0-0.482,0.042-0.706,0.119	c-0.188-0.024-0.396-0.037-0.628-0.037c-0.126,0-0.268,0.003-0.43,0.01c-0.005,0-0.009,0-0.014,0.001	c-0.291-0.085-0.602-0.119-0.98-0.138c-0.054-0.003-0.111-0.01-0.17-0.016c-0.174-0.018-0.391-0.041-0.638-0.041	c-0.108,0-0.215,0.005-0.32,0.014c-0.31,0.028-0.606,0.098-0.895,0.214c-0.423-0.366-0.975-0.585-1.566-0.585	c-0.391,0-0.776,0.099-1.113,0.287c-0.052,0.029-0.099,0.057-0.143,0.084c-0.045-0.008-0.091-0.016-0.139-0.022	c-0.092-0.013-0.215-0.021-0.308-0.021l0,0l0,0c-0.727,0-1.412,0.36-1.831,0.964c-0.421,0.606-0.523,1.371-0.273,2.046	c0.2,0.539,0.606,1.004,1.098,1.309c-0.013,1.006,0.545,1.908,1.496,2.325L2.795,29.4c0.267,0.146,0.765,0.419,1.451,0.419	c0.044,0,0.087-0.001,0.13-0.003c0.182,0.236,0.364,0.409,0.484,0.523c0.269,0.255,0.604,0.436,0.964,0.526	c0.083,0.28,0.226,0.575,0.466,0.847c0.438,0.496,1.039,0.756,1.788,0.773c0.015,0,0.079,0.001,0.094,0.001	c0.619,0,1.106-0.145,1.483-0.343c0.107,0.02,0.216,0.035,0.327,0.043c0.17,0.012,0.392,0.072,0.752,0.423	c0.35,0.359,0.821,0.749,1.643,0.893c0.12,0.028,0.246,0.048,0.378,0.061c0.009,0.005,0.018,0.009,0.027,0.014	c0.462,0.235,0.916,0.257,1.247,0.273c0.012,0.001,0.024,0.001,0.037,0.002c0.023,0.01,0.047,0.019,0.071,0.029	c0.021,0.19,0.07,0.374,0.142,0.548l0.063,7.649c0.005,0.667,0.338,1.258,0.846,1.617l-0.003,1.828c0,0.193,0.027,0.385,0.082,0.569	l0.065,0.221l0.016,1.738c0.001,0.125,0.014,0.249,0.038,0.371l0.18,0.904l0.18,3.047c0.062,1.047,0.922,1.869,1.972,1.882	c0.008,0,0.017,0,0.025,0c1.038,0,1.905-0.795,1.993-1.832l0.245-2.911c0.016-0.187,0.005-0.375-0.032-0.559v-0.159l0.086-0.179	c0.117-0.244,0.183-0.509,0.195-0.779c0.299-0.33,0.489-0.762,0.513-1.24l0.345-6.83c0.008-0.162-0.003-0.325-0.034-0.483	l0.041-0.095c0.111-0.258,0.166-0.537,0.162-0.818l-0.009-0.602c-0.002-0.131-0.017-0.262-0.044-0.389v-0.224	c0.04-0.102,0.071-0.209,0.094-0.32l0.146-0.705c0.013-0.064,0.023-0.128,0.03-0.193c0.135,0.061,0.275,0.107,0.417,0.136	c0.084,0.029,0.17,0.053,0.258,0.071l1.306,0.696c0.109,0.058,0.223,0.106,0.34,0.143v0.6c0,0.221,0.037,0.441,0.109,0.65	l0.269,0.783l0.003,1.838c0,0.16,0.02,0.32,0.058,0.475l0.181,0.733l-0.03,2.447c-0.001,0.054,0.001,0.108,0.005,0.161l0.283,4.121	c0.02,0.286,0.098,0.553,0.224,0.792l-0.001,0.476c-0.001,0.237,0.041,0.471,0.122,0.693l0.088,0.241l0.16,2.157	c0.077,1.041,0.942,1.848,1.986,1.852c0.003,0,0.006,0,0.009,0c1.04,0,1.908-0.798,1.993-1.836l0.298-3.617	c0.004-0.05,0.006-0.1,0.007-0.149l0.016-2.109l0.106-0.388c0.048-0.176,0.072-0.357,0.071-0.539l-0.005-0.906	c-0.001-0.159-0.021-0.318-0.059-0.472l-0.074-0.298l0.004-0.796c0.471-0.336,0.792-0.871,0.835-1.49l0.212-3.042	c0.205,0.062,0.42,0.094,0.64,0.094c0.242,0,0.576-0.041,0.941-0.207c0.162-0.018,0.321-0.051,0.478-0.1l-0.003,0.815L32.595,40.6	c-0.061,0.308-0.048,0.627,0.037,0.93l0.198,0.704l0.205,3.607c0.029,0.508,0.245,0.963,0.58,1.299l0.15,2.504	c0.062,1.033,0.901,1.848,1.935,1.88c0.021,0.001,0.041,0.001,0.062,0.001c1.008,0,1.862-0.752,1.984-1.759l0.406-3.343	c0.01-0.08,0.015-0.161,0.015-0.242v-0.884l0.24-0.565c0.106-0.249,0.161-0.517,0.16-0.788l-0.008-3.864	c0.049-0.015,0.098-0.032,0.148-0.051c0.031,0.004,0.084,0.012,0.168,0.032c0.118,0.028,0.235,0.059,0.352,0.09	c0.059,0.015,0.118,0.031,0.177,0.046c0.34,0.259,0.759,0.414,1.209,0.435c0.033,0.518,0.263,0.98,0.614,1.316l-0.006,0.873	c-0.001,0.172,0.02,0.344,0.063,0.511l0.17,0.663l0.022,2.292c0,0.036,0.002,0.073,0.004,0.109l0.302,4.668	c0.068,1.046,0.932,1.863,1.98,1.871c0.005,0,0.011,0,0.016,0c1.042,0,1.91-0.8,1.993-1.84l0.203-2.536	c0.462-0.339,0.775-0.874,0.813-1.488l0.374-5.976c0.319,0.2,0.614,0.285,0.731,0.318c0.121,0.035,0.245,0.058,0.37,0.069	c0.025,0.01,0.049,0.019,0.075,0.028c0.032,0.012,0.065,0.022,0.097,0.032c0.405,0.393,0.836,0.547,1.175,0.601	c0.44,0.227,0.935,0.363,1.387,0.363c0.041,0,0.082-0.001,0.123-0.003c0.056,0.032,0.109,0.061,0.16,0.088	c0.313,0.169,0.666,0.258,1.021,0.258c0.592,0,1.169-0.247,1.584-0.678c0.081-0.084,0.155-0.174,0.221-0.269	c0.158-0.007,0.298-0.028,0.415-0.053c0.039,0.002,0.079,0.003,0.118,0.003c0.069,0,0.138-0.004,0.207-0.011	c0.085,0.037,0.171,0.072,0.246,0.1c0.393,0.148,0.763,0.22,1.131,0.22c0.245,0,0.487-0.033,0.72-0.097	c0.181,0.054,0.396,0.095,0.637,0.098c0.012,0.006,0.023,0.011,0.035,0.017c0.316,0.153,0.599,0.219,0.768,0.258	c0.203,0.047,0.384,0.068,0.562,0.068c0.042,0,0.083-0.001,0.124-0.003c0.147,0.118,0.331,0.234,0.557,0.322	c0.246,0.096,0.467,0.13,0.646,0.144c0.049,0.015,0.13,0.044,0.198,0.074c0.256,0.114,0.537,0.174,0.818,0.174	c0.076,0,0.148-0.004,0.216-0.012c0.005,0.001,0.011,0.001,0.016,0.002c0.07,0.007,0.149,0.012,0.219,0.012	c0.467,0,1.143-0.152,1.723-0.875c0.356-0.393,0.54-0.926,0.52-1.455C64.119,39.972,63.614,39.076,62.753,38.727z M2.559,25.417	c-0.006,0-0.011,0-0.017,0c-0.011,0.003-0.022,0.004-0.034,0.004c-0.158,0-0.43-0.209-0.498-0.391	c-0.043-0.115,0.06-0.313,0.229-0.313c0.01,0,0.021,0.001,0.031,0.002c0.227,0.032,0.425,0.107,0.505,0.364	C2.856,25.341,2.815,25.417,2.559,25.417z M56.983,38.906c0.048-0.005,0.095-0.007,0.141-0.007c0.338,0,0.645,0.123,0.949,0.305	c-0.049,0.033-0.071,0.099-0.144,0.116c-0.065,0.015-0.138,0.022-0.215,0.022c-0.311,0-0.685-0.111-0.807-0.254	C56.813,38.979,56.883,38.916,56.983,38.906z M10.084,25.035c0.025-0.074,0.091-0.184,0.204-0.184	c0.115,0.012,0.115,0.109,0.12,0.273c0.002,0.084,0.028,0.134,0.055,0.184c-0.033,0.006-0.064,0.008-0.094,0.008	C10.166,25.316,10.03,25.195,10.084,25.035z M3.392,24.679c0.189-0.097,0.254-0.169,0.407-0.254	c0.044-0.024,0.093-0.035,0.143-0.035c0.161,0,0.332,0.114,0.367,0.273c0.111,0.51-0.231,0.946-0.739,0.946	c-0.002,0-0.004,0-0.006,0c-0.241-0.002-0.426-0.174-0.504-0.457C2.986,24.885,3.231,24.762,3.392,24.679z M4.636,27.67	c-0.145,0.106-0.273,0.145-0.392,0.145c-0.251,0-0.463-0.177-0.712-0.286c-0.276-0.121-0.35-0.371-0.27-0.666	c0.041-0.152,0.029-0.324,0.116-0.455c0.069-0.102,0.221-0.151,0.346-0.186c0.064-0.018,0.136-0.101,0.199-0.101	c0.001,0,0.002,0,0.003,0c0.106,0.005,0.202,0.122,0.3,0.234c0.021,0.024,0.047,0.029,0.073,0.029c0.019,0,0.039-0.003,0.058-0.003	c0.022,0,0.043,0.003,0.061,0.017c0.171,0.131,0.231,0.307,0.387,0.472c0.095,0.11,0.138,0.189,0.133,0.425	C4.931,27.689,4.778,27.566,4.636,27.67z M8.915,30.221c-0.193,0.21-0.475,0.261-0.745,0.261c-0.017,0-0.033,0-0.05-0.001	c-0.344-0.008-0.445-0.092-0.392-0.598c0.005-0.044,0.043-0.144,0.348-0.144c0.012,0,0.024,0,0.037,0c0.003,0,0.006,0,0.009,0	c0.151,0,0.13-0.094,0.228-0.094l0,0c0.112,0,0.365,0.026,0.478,0.223c0.071,0.124,0.239,0.104,0.328,0.155	C9.081,30.094,9.032,30.094,8.915,30.221z M21.523,33.67c-0.286-0.137-0.507-0.201-0.472-0.312c0.013-0.042,0.044-0.06,0.088-0.06	c0.241,0,0.878,0.543,1.157,0.813C22.128,34.003,21.796,33.8,21.523,33.67z M30.173,36.48c-0.102,0.001-0.238,0.141-0.238,0.141	l-0.199-0.003l-0.257,0.239l-0.147-0.005l-0.098,0.098l0.026-0.141c0,0,0.274-0.25,0.304-0.295c0.064-0.098,0.105-0.418,0.105-0.418	s0.098,0.031,0.232,0.031l0.119-0.235l0.181,0.262l0.025,0.22c0,0,0.307,0.174,0.241,0.225c-0.002,0.001-0.004,0.002-0.007,0.002	c-0.037,0-0.159-0.121-0.283-0.121C30.174,36.48,30.174,36.48,30.173,36.48z M49.933,40.169c-0.048,0-0.12-0.051-0.215-0.192	c0,0,0.306,0.002,0.287,0.108C49.997,40.134,49.973,40.169,49.933,40.169z M50.992,40.506c-0.211,0-0.589-0.165-0.743-0.335	c0.028-0.001,0.056-0.002,0.083-0.002c0.313,0,0.559,0.092,0.805,0.263C51.124,40.484,51.069,40.506,50.992,40.506z M52.296,40.848	c-0.024,0-0.049-0.006-0.072-0.018c-0.217-0.117-0.433-0.245-0.626-0.398c-0.22-0.121-0.03-0.412-0.159-0.437	c0.047-0.042,0.091-0.109,0.183-0.109c0.04,0,0.088,0.013,0.15,0.045c0.112,0.06,0.217,0.139,0.334,0.185	c0.326,0.12,0.311,0.134,0.33,0.389c0.003,0.037,0.057,0.098,0.059,0.145C52.499,40.752,52.398,40.848,52.296,40.848z M58.94,40.506	c-0.025,0-0.053-0.003-0.083-0.01c-0.124-0.029-0.252-0.057-0.366-0.112c-0.24-0.116-0.474-0.231-0.744-0.231	c-0.04,0-0.081,0.003-0.122,0.008c-0.009,0.001-0.018,0.002-0.027,0.002c-0.1,0-0.211-0.064-0.309-0.11	c-0.122-0.057-0.242-0.091-0.362-0.091c-0.115,0-0.229,0.031-0.346,0.101c-0.119,0.071-0.24,0.099-0.362,0.099	c-0.141,0-0.284-0.038-0.425-0.091c-0.194-0.073-0.575-0.255-0.575-0.255s-0.065-0.003-0.153-0.003c-0.137,0-0.332,0.006-0.43,0.039	c0.004-0.107-0.01-0.251-0.142-0.251c-0.017,0-0.035,0.002-0.056,0.007c-0.184,0.044-0.098,0.148-0.024,0.21	c-0.13,0.012-0.279,0.084-0.413,0.084c-0.01,0-0.02,0-0.03-0.001c-0.141-0.013-0.261-0.122-0.401-0.298	c-0.057-0.072-0.148-0.168-0.231-0.18c-0.003,0-0.006-0.001-0.009-0.001c-0.046,0-0.078,0.056-0.143,0.059h-0.001	c-0.062,0-0.207-0.172-0.319-0.187c-0.219-0.03-0.386-0.135-0.509-0.179c-0.157-0.055-0.282-0.064-0.346-0.064	c-0.031,0-0.048,0.002-0.048,0.002s-0.195-0.122-0.293-0.157c-0.087-0.031-0.152-0.049-0.199-0.049	c-0.104,0-0.127,0.083-0.137,0.281c0.022,0.258-0.099,0.348-0.169,0.495c-0.004,0.009-0.024,0.018-0.053,0.018	c-0.042,0-0.104-0.018-0.164-0.08c0.003-0.025,0.006-0.05,0.009-0.074c0.076-0.051,0.182-0.087,0.221-0.159	c0.041-0.077,0.053-0.143,0.028-0.231c-0.013-0.045-0.037-0.154-0.104-0.176c-0.003-0.001-0.006-0.001-0.009-0.001	c-0.044,0-0.149,0.069-0.193,0.069c-0.003,0-0.005,0-0.008-0.001c-0.047-0.013-0.076-0.126-0.134-0.126	c-0.013,0-0.027,0.005-0.043,0.019c-0.09,0.074-0.03,0.153-0.016,0.223c0.047,0.225-0.063,0.399-0.276,0.409	c-0.006,0-0.013,0-0.019,0c-0.114,0-0.183-0.05-0.152-0.189c0.014-0.063,0.028-0.126,0.04-0.19c0.04-0.209-0.042-0.322-0.042-0.322	s-0.692-0.238-0.886-0.273c-0.016-0.003-0.033-0.004-0.05-0.004c-0.101,0-0.205,0.049-0.224,0.106	c-0.074,0.224-0.029,0.274,0.086,0.424c0.025,0.033,0.058,0.078,0.098,0.103c0.106,0.067,0.207,0.123,0.112,0.28	c-0.071,0.118-0.151,0.194-0.272,0.194c-0.031,0-0.064-0.005-0.101-0.015c-0.194-0.07-0.263-0.133-0.573-0.139	c-0.097-0.028-0.203-0.065-0.275-0.132c-0.253-0.23-0.574-0.296-0.906-0.296c-0.002,0-0.003,0-0.005,0l0,0	c-0.082,0-0.167-0.065-0.214-0.129c-0.158-0.213-0.28-0.263-0.519-0.27c-0.184-0.006-0.462,0.005-0.644-0.015	c-0.015,0.001-0.031,0.001-0.048,0.001c-0.148,0-0.326-0.035-0.326-0.035l-0.028-0.181l-0.369-0.018l0.138,1.222l-0.457,7.307	L44.66,41.65l-0.071-0.012l-0.117,0.465v3.187l-0.323,0.957l-0.375,4.684l-0.302-4.668l-0.025-2.535l-0.231-0.898l0.009-1.369	l0.139-0.543l-0.001-2.407l-0.228-0.646c0,0,0,0-0.001,0c-0.007,0-0.056,0.002-0.218,0.043c-0.011,0.003-0.025,0.004-0.04,0.004	c-0.081,0-0.2-0.036-0.2-0.036l-0.074,2.62l-0.074-2.602c-0.183,0.103-0.268,0.16-0.382,0.248c-0.339,0.265-0.682,0.408-0.953,0.408	c-0.032,0-0.063-0.002-0.093-0.006c-0.019-0.003-0.036-0.004-0.054-0.004c-0.143,0-0.236,0.079-0.325,0.088	c-0.004,0-0.008,0.001-0.013,0.001c-0.05,0-0.11-0.025-0.124-0.059c-0.074-0.181-0.228-0.204-0.386-0.24	c-0.288-0.067-0.572-0.149-0.86-0.218c-0.224-0.054-0.449-0.091-0.672-0.091c-0.224,0-0.446,0.037-0.667,0.129	c-0.028,0.012-0.063,0.025-0.095,0.025c-0.016,0-0.031-0.003-0.044-0.012c-0.082-0.053-0.162-0.072-0.242-0.072	c-0.115,0-0.226,0.039-0.336,0.068c-0.053,0.014-0.098,0.02-0.137,0.02c-0.213,0-0.228-0.181-0.228-0.181l-0.086-0.078l-0.281,1.082	l0.01,4.94l-0.401,0.941l0.001,1.292l-0.406,3.343l-0.265-4.428l0.035-2.538l-0.26-0.702c0,0-0.169,2.759-0.24,3.872l-0.217-3.825	l-0.257-0.914l0.163-0.826l0.01-2.702l-0.139-0.057c0,0-0.172-0.479-0.291-0.479s-1.079-0.058-1.079-0.058s-0.7,0.215-1.025,0.348	c-0.096,0.039-0.17,0.049-0.244,0.049c-0.08,0-0.161-0.012-0.271-0.012c-0.028,0-0.098,0.068-0.18,0.126	c-0.069,0.049-0.134,0.077-0.197,0.077c-0.065,0-0.126-0.03-0.186-0.097c-0.157-0.177-0.302-0.182-0.32-0.182	c-0.001,0-0.002,0-0.002,0s-0.265,0.106-0.304,0.106c-0.001,0-0.002,0-0.003,0c-0.104-0.024-0.209-0.051-0.307-0.094	c-0.012-0.005,0.002-0.148,0.002-0.148l0.244-0.129l0.163,0.058l0.097,0.076l0.15-0.027l0.134,0.086c0,0,0.066-0.013,0.101-0.013	c0.005,0,0.01,0,0.013,0.001l0,0c0.017,0,0.046-0.27,0.046-0.27l0.034,0.295c0.012,0.003,0.024,0.004,0.034,0.004	c0.131,0,0.16-0.19,0.16-0.28c0-0.126-0.077-0.265-0.077-0.266l-0.062-0.021l-0.098,0.106l-0.087-0.168l-0.257-0.167l-0.406-0.017	l-0.291-0.522l-0.224-0.435c-0.109,0-0.184-0.002-0.243-0.002c-0.03,0-0.056,0-0.081,0.002c-0.001,0-0.003,0-0.004,0	c-0.087,0-0.187-0.135-0.187-0.135s-0.123,0.108-0.354,0.108c-0.019,0-0.039-0.001-0.059-0.002l-0.076,1.347	c0,0,0.316,0.051,0.326,0.123c0.008,0.058-0.064,0.15-0.144,0.15s-0.134-0.092-0.134-0.092l-0.069-0.01l-0.378,5.424l-0.043-5.572	l-0.285-0.104l-0.119,0.556l-0.011,4.966l-0.379,1.222l-0.008,1.597l0.135,0.541l0.005,0.906l-0.175,0.64l-0.018,2.37L27.257,53	l-0.18-2.436l-0.185-0.503l0.009-4.116l-0.089-0.778c0,0-0.111,2.538-0.148,3.484l-0.283-4.121l0.033-2.703l-0.242-0.981	l-0.004-2.17l-0.378-1.098v-1.985c0,0-0.404-0.108-0.56-0.237c-0.145-0.12-0.334-0.298-0.334-0.298l-0.505,0.013l-1.621-0.864	l-0.222-0.026l-0.275-0.412l0.308,0.312c0,0,1.127,0.241,1.537,0.306c0.045,0.007,0.096,0.014,0.143,0.014	c0.123,0,0.222-0.049,0.146-0.277c-0.008-0.024,0.013-0.062,0.028-0.089c0.113-0.207,0.146-0.375-0.17-0.392	c-0.027-0.001-0.115-0.054-0.121-0.076c-0.026-0.096-0.046-0.255-0.148-0.255c-0.003,0-0.005,0-0.008,0	c-0.014,0.001-0.028,0.002-0.042,0.002c-0.197,0-0.407-0.103-0.531-0.14c-0.039-0.011-0.078-0.015-0.112-0.015	c-0.07,0-0.122,0.016-0.122,0.016s-0.133-0.142-0.196-0.159c-0.044-0.012-0.08-0.014-0.112-0.014c-0.033,0-0.062,0.003-0.093,0.003	c-0.012,0-0.024,0-0.037-0.002C22.718,33.001,22.694,33,22.672,33c-0.269,0-0.318,0.166-0.409,0.404	c-0.328-0.441-0.472-0.283-0.708-0.4c-0.123-0.061-0.354-0.141-0.354-0.141s-0.176,0.078-0.266,0.15	c-0.023,0.019-0.071,0.029-0.115,0.029c-0.036,0-0.068-0.007-0.079-0.021c-0.106-0.142-0.253-0.23-0.446-0.23	c-0.027,0-0.055,0.002-0.084,0.005c-0.019,0.002-0.038,0.003-0.057,0.003c-0.169,0-0.32-0.086-0.32-0.086l-0.015,0.493l-0.265,0.795	l-0.071,1.718l-0.146,0.705l-0.042-3.696l-0.102-0.005l0.009,4.986l0.044,0.081l0.009,0.602l-0.228,0.53l-0.025,0.555l0.086,0.181	l-0.345,6.83l-0.06-4.659l-0.091-0.193l-0.101,2.905l-0.289,0.905l0.026,2.296l-0.283,0.589v0.864l0.039,0.142l-0.245,2.911	l-0.188-3.184l-0.206-1.038l-0.018-2.018l-0.145-0.49l0.003-2.227l-0.222-1.525l-0.001-3.343l-0.141-0.518l0.012-2.008l-0.117-0.487	l-0.379,6.642l-0.068-8.261l-0.15-0.143c0,0-0.003-0.984-0.003-1.431c-0.098,0.017-0.193,0.025-0.286,0.025	c-0.431,0-0.815-0.165-1.206-0.331c-0.219-0.093-0.777-0.041-0.94-0.124c-0.168-0.085-0.354-0.225-0.354-0.225	s-0.098,0.01-0.22,0.01c-0.109,0-0.236-0.008-0.331-0.038c-0.397-0.053-0.48-0.195-0.654-0.365	c-0.567-0.552-1.205-0.926-2.003-0.984c-0.259-0.019-0.456-0.147-0.644-0.331C9.21,29.592,8.886,29.46,8.52,29.46	c-0.066,0-0.133,0.004-0.202,0.013c-0.029,0.004-0.059,0.005-0.089,0.005c-0.081,0-0.164-0.013-0.237-0.04	c-0.359-0.133-0.713-0.28-1.067-0.425c-0.132-0.054-0.387-0.19-0.387-0.19s-0.112,0.061-0.169,0.097	c-0.007,0.004-0.016,0.006-0.027,0.006c-0.034,0-0.082-0.018-0.104-0.039c-0.246-0.234-0.477-0.471-0.501-0.851	c-0.009-0.136,0.024-0.211-0.032-0.267c-0.184-0.185-0.416-0.406-0.414-0.664c0.002-0.292-0.016-0.691-0.007-0.983	c0.016-0.488,0.241-0.829,0.65-1.113c0.208-0.145,0.413-0.233,0.646-0.254c0.047-0.004,0.095-0.006,0.143-0.006	c0.238,0,0.488,0.043,0.704,0.055c0.7,0.036,0.53,0.105,0.713,0.13c0.077,0.01,0.175,0.015,0.27,0.015	c0.069,0,0.137-0.002,0.193-0.007c0.132-0.005,0.248-0.008,0.35-0.008c0.648,0,0.772,0.112,1.219,0.425	c0.471,0.33,1.02,0.123,1.288,0.312c0.087,0.062,0.315,0.338,0.593,0.432c0.421,0.143,0.544,0.111,0.801,0.179	c0.589,0.156,0.834,0.196,1.109,0.196c0.085,0,0.173-0.004,0.275-0.009l0.041,0.067l0.176,0.024l0.135-0.108l1.328,0.026	l-0.08-1.207l-0.268-0.836l0.366-1.481v-1.741l0.052-0.042l0.003-0.193l-0.053-0.065c0.001-0.106,0.001-0.175,0.001-0.175	l0.055-0.009l0.003-0.293l-0.071-0.069l0.009-0.627l0.352-0.767l0.039-0.715l0.468-0.371c0,0,0.247-0.047,0.335-0.081	c0.355-0.135,0.545-0.243,0.545-0.243c0.702-0.059,1.063-0.229,1.063-0.229l0.135-0.453c0.055,0.18,0.188,0.68,0.188,0.68	l0.259-0.098c0,0,0.152,0.279,0.308,0.299l0.111-0.466l0.168,0.055l0.14-1.502l0.219,2.688l0.093,0.21c0,0,0.064-0.454,0.082-0.545	c0.016,0.251,0.131,1.01,0.131,1.01s0.336,0.628,0.435,0.944c0,0-0.109,0.347-0.197,0.873c-0.118,0.15-0.324,0.293-0.305,0.725	c0.017,0.4,0.076,0.73,0.076,0.73l-0.169,0.199l0.021,2.998l-0.48,1.805l1.241,0.105l0.445,0.206l0.579-0.017l1.116,0.274	l0.205-0.046l0.443,0.262l0.275-0.025c0,0,0.039,0.051,0.082,0.067l-0.057,0.245l0.078,0.104l0.218,0.025l0.43,0.358l0.264-0.136	l-0.167-3.516l0.152-0.282l-0.002-1.039l-0.474-1.36l-0.012-2.487l-0.128-0.148l-0.038,1.254l-0.183-2.118l-0.215-0.341	l-0.001-0.475l-0.056-0.03c0.001-0.095,0.054-0.373,0.054-0.373l-0.086-0.11l0.143-1.402c0,0,0.239-0.089,0.447-0.605	c0.178-0.441,0.352-0.592,0.621-0.819c0.172-0.145,0.319-0.322,0.496-0.459c0.2-0.154,0.25-0.329,0.634-0.417	c0.318-0.073,0.554-0.416,0.554-0.416l0.114,0.131l0.265-0.78l0.185-0.063L27.835,11l0.146,2.545l0.124,0.019l0.12-0.888	l0.162,1.617l0.099,0.036l0.034-0.49l0.131-0.169l0.094-1.031l0.111,1.422l0.063,0.199l0.063-0.225l0.074,0.736l0.249,0.15	l0.003,0.293l0.249,0.384c0,0,0.037,0.461,0.031,0.582c-0.005,0.12-0.012,0.359-0.012,0.359l0.088,0.391l-0.144,0.248l-0.007,0.152	l0.058,0.048l0.011,1.397l-0.148,0.711l0.061,0.387l-0.258,4.661l-0.049-3.439l-0.176,0.79L29,25.295l0.23,0.761l0.016,3.8	c0,0,0.135-0.067,0.318-0.067c0.009,0,0.018,0,0.027,0c0.282,0.01,0.521,0.237,0.936,0.308c0.135,0.095,0.33,0.32,0.48,0.391	c0.042,0.02,0.326,0.077,0.326,0.077l0.291,0.268c0.045-0.004,0.087-0.006,0.127-0.006c0.21,0,0.37,0.051,0.532,0.131	c0.367,0.095,0.678,0.258,0.882,0.579c0.139,0.219,0.328,0.347,0.462,0.424c0.101,0.058,0.47,0.065,0.644,0.065	c0.056,0,0.092-0.001,0.092-0.001l-0.008-3.613l-0.312-1.182l-0.027-2.654l0.34-0.674l-0.03-2.242l-0.099-0.331l0.006-0.798	l-0.085,0.107c0,0-0.061,2.492-0.09,3.364c-0.013,0-0.243-4.569-0.243-4.569l-0.209-0.424c0,0,0.194-0.529,0.194-0.617	c0-0.215-0.083-0.315-0.083-0.315l-0.028-0.792c0,0,0.16-0.34,0.229-0.768c0.048-0.295,0.05-0.648,0.05-0.648l0.589-0.71l0.015-0.53	l0.243-0.281l0.123-2.311l0.126,1.74l0.255,0.932l0.123-0.131v-0.605l0.136,0.24l0.048-1.004l0.058,0.886l0.204,0.375l0.276-0.072	l0.597,0.349l0.222-0.007l0.12-0.426l0.129,0.661l0.197,0.134l0.068,0.221c0,0,0.276,0.166,0.328,0.221	c0.136,0.201,0.394,0.911,0.394,0.911l0.066,0.822c-0.427,0.906-0.473,1.351-0.472,1.9c0.002,0.647-0.115,2.071-0.115,2.071	l0.258,1.181l-0.185,7.438l-0.152,0.695c0,0-0.004-3.55-0.004-5.146l-0.053-0.097l-0.205,0.944l-0.005,4.902l-0.106,0.902	l-0.013,0.911c0,0,0.129,0.101,0.317,0.141c0.317,0.247,0.681,0.351,1.082,0.351c0.139,0,0.282-0.013,0.43-0.036	c0.039-0.006,0.08-0.002,0.12-0.005c0.015-0.001,0.03-0.001,0.045-0.001c0.193,0,0.333,0.087,0.405,0.285	c0.071,0.195,0.206,0.25,0.409,0.26c0.233,0.012,0.334-0.013,0.564,0.039c0.155,0.034,0.178,0.207,0.591,0.207	c0.267,0.012,0.485,0.123,0.702,0.264c0.165,0.107,0.565,0.294,0.565,0.294l-0.071-2.641l0.049-2.436l-0.13-0.571L42.24,29.05	l-0.15,1.717l-0.346-2.322l-0.017-2.75l0.205-0.717l0.001-1.094l-0.166-0.822l0.022-0.326l-0.102-0.058l-0.006-0.211l-0.047-0.077	l0.297-1.524l0.409-0.36l0.334-0.847l0.081,0.32l0.083,0.053l0.125-2.061l0.257,1.575l0.188,0.162l0.148-0.069l0.201-2.763	l0.162,2.563l0.111-1.038l0.086,1.244l0.099-0.128l0.083,0.156l0.108,0.006l0.075,0.131l0.18-0.009	c0.154,0.156,0.378,0.206,0.474,0.273c0.153,0.107,0.363,0.138,0.363,0.138s0.304,0.465,0.441,0.784	c0.109,0.253,0.267,0.787,0.267,0.787l-0.04,0.889l0.102,0.321l-0.259,0.699l0.302,0.44l-0.369,8.267l-0.145-5.423l-0.083,0.321	l0.01,1.493l-0.33,0.757c0,0-0.016,2.536-0.002,3.688c0.005,0.398-0.016,0.623-0.016,0.623l-0.369,0.911l-0.006,0.611l0.285,0.156	c0.145-0.025,0.294-0.039,0.443-0.039c0.319,0,0.636,0.067,0.91,0.247c0.148,0.097,0.338,0.137,0.514,0.183	c0.096,0.026,0.146,0.032,0.186,0.032c0.036,0,0.065-0.005,0.113-0.005c0.034,0,0.077,0.002,0.14,0.011	c0.076,0.01,0.326,0.157,0.442,0.157c0.014,0,0.027-0.002,0.036-0.007c0.09-0.048,0.173-0.29,0.304-0.313	c0.006-0.001,0.013-0.002,0.02-0.002c0.125,0,0.251,0.205,0.252,0.297c0.001,0.09,0.008,0.254,0.008,0.254s0.317,0.178,0.472,0.178	c0.001,0,0.003,0,0.004,0c0.665,0,1.015,0.246,1.578,0.352c0.408,0.077,0.588,0.1,0.988,0.21c0.142,0.039,0.399,0.064,0.534,0.184	c0.056,0.05,0.037,0.178,0.327,0.261c0.158,0.045,0.625,0.041,0.924,0.217c0.51,0.301,0.874,0.415,1.234,0.415	c0.043,0,0.086-0.002,0.129-0.005c0.023-0.002,0.046-0.003,0.07-0.003c0.128,0,0.268,0.025,0.366,0.09	c0.373,0.249,0.782,0.356,1.216,0.403c0.097,0.011,0.238,0.085,0.333,0.112c-0.001,0.015-0.164,0.096-0.345,0.096	c-0.002,0-0.004,0-0.005,0c-0.133-0.001-0.277-0.083-0.36-0.083c-0.001,0-0.002,0-0.003,0c-0.054,0.001-0.101,0.002-0.141,0.002	c-0.307,0-0.285-0.04-0.553-0.096c-0.033-0.007-0.06-0.01-0.083-0.01c-0.092,0-0.12,0.054-0.204,0.156	c-0.092,0.112-0.234,0.204-0.359,0.204c-0.015,0-0.029-0.001-0.044-0.004c-0.152-0.029-0.281-0.193-0.545-0.231	c-0.616-0.089-0.485-0.238-0.989-0.43c-0.132-0.05-0.512-0.086-0.655-0.095c-0.569,0-0.338-0.246-0.667-0.271	c-0.328-0.025-0.337-0.234-0.472-0.279c-0.024-0.008-0.044-0.011-0.064-0.011c-0.065,0-0.128,0.031-0.316,0.031	c-0.027,0-0.057-0.001-0.089-0.002c-0.009,0-0.018,0-0.027,0c-0.018,0-0.037,0-0.057,0c-0.055,0-0.113-0.004-0.147-0.032	c-0.482-0.392-1.08-0.299-1.628-0.411c-0.552-0.028-0.679-0.18-0.97-0.192c-0.005,0-0.009,0-0.014,0	c-0.207,0-0.564,0.176-0.564,0.176s-0.017,0.171,0.006,0.241c0.075,0.231,0.263,0.354,0.542,0.354c0.053,0,0.109-0.004,0.168-0.013	c0.086-0.013,0.17-0.028,0.248-0.028c0.132,0,0.249,0.042,0.333,0.209c0.011,0.022,0.054,0.036,0.084,0.039	c0.04,0.007,0.084,0.009,0.127,0.009c0.031,0,0.062-0.001,0.093-0.001c0.042,0,0.082,0.001,0.119,0.008	c0.123,0.024,0.218,0.089,0.33,0.112c2.366,0.475,2.365,0.727,2.883,0.727c0.298,0,0.398,0.031,0.85,0.031	c0.065,0,0.181,0.274,0.989,0.462c0.194,0.064,0.267,0.112,0.969,0.112c0.154,0,0.708,0.352,0.987,0.364c0.005,0,0.011,0,0.017,0	c0.071,0,0.2-0.017,0.203-0.108c0.002-0.081-0.081-0.161-0.145-0.191c-0.151-0.071-0.318-0.107-0.474-0.166	c-0.081-0.031-0.159-0.074-0.227-0.127c-0.028-0.022-0.053-0.056-0.038-0.127c0.006-0.03,0.033-0.038,0.062-0.038	c0.04,0,0.084,0.016,0.084,0.016S56,39.399,56.69,39.504c0.189,0.08,0.658,0.416,0.854,0.477c0.013,0,0.026,0,0.039,0	c0.491,0,0.651,0.078,0.774,0.183c0.066,0.056,0.131,0.075,0.266,0.1c0.033,0.006,0.073,0.008,0.116,0.008	c0.095,0,0.205-0.01,0.285-0.01c0.074,0,0.123,0.009,0.114,0.041C59.123,40.426,59.061,40.506,58.94,40.506z M58.924,39.679	c-0.161,0-0.309-0.098-0.517-0.247c-0.018-0.013-0.029-0.043-0.029-0.043c0.359,0.015,0.585,0.135,0.835,0.195	C59.105,39.65,59.012,39.679,58.924,39.679z M61.733,41.218c-0.003,0-0.006,0-0.01-0.001c-0.044-0.005-0.088-0.075-0.155-0.075	c-0.001,0-0.001,0-0.002,0c-0.115,0.003-0.255,0.074-0.284,0.074c-0.001,0-0.003,0-0.004-0.001	c-0.204-0.091-0.542-0.214-0.781-0.236c-0.034-0.003-0.112-0.003-0.15-0.018c-0.077-0.03-0.106-0.148-0.183-0.192	c-0.129-0.073-0.249-0.095-0.269-0.153c-0.094-0.272-0.227-0.303-0.44-0.358c-0.035-0.009-0.083-0.05-0.089-0.093	c-0.003-0.022,0.007-0.061,0.029-0.061c0.034-0.001,0.068-0.002,0.102-0.002c0.469,0,0.901,0.113,1.24,0.47	c0.041,0.043,0.155,0.052,0.279,0.052c0.078,0,0.16-0.003,0.23-0.003c0.054,0,0.101,0.002,0.134,0.009	c0.138,0.033,0.231,0.077,0.489,0.148c0.055,0.015,0.128,0.199,0.11,0.217C61.894,41.075,61.826,41.218,61.733,41.218z M61.923,40.581c-0.433,0-1.142-0.171-1.142-0.171l-0.032-0.091l0.342,0.072l0.152-0.122c0,0,0.538,0.221,0.757,0.31	C61.976,40.581,61.95,40.581,61.923,40.581z M25.14,33.872c0.064,0.06,0.077,0.09,0.093,0.201c0.002,0.013-0.048,0.15-0.05,0.165	c-0.018,0.156-0.021,0.374-0.187,0.374c-0.021,0-0.044-0.003-0.07-0.011c-0.145-0.041-0.299-0.228-0.297-0.457	c0.002-0.177,0.09-0.281,0.187-0.323c0.029-0.012,0.065-0.018,0.104-0.018C25.002,33.802,25.093,33.828,25.14,33.872z M28.372,35.512l0.021,0.991l-0.157-0.051L28.229,35.4L28.372,35.512z M46.835,37.481c0.013,0.083-0.012,0.2-0.066,0.258	c-0.022,0.024-0.067,0.031-0.116,0.031c-0.04,0-0.083-0.005-0.118-0.01c-0.306-0.042-0.608-0.132-0.918-0.14	c-0.194-0.005-0.359-0.005-0.453-0.005c-0.055,0-0.086,0-0.086,0c-0.107-0.175-0.05-0.509-0.05-0.509	c0.211,0.109,0.421,0.141,0.631,0.141c0.235,0,0.469-0.04,0.703-0.059c0.029-0.002,0.056-0.003,0.082-0.003	C46.682,37.186,46.804,37.283,46.835,37.481z M42.489,36.345c0.002,0.054,0.003,0.182-0.005,0.274	c-0.297,0.034-0.592,0.074-0.887,0.074c-0.323,0-0.644-0.048-0.963-0.203c-0.05-0.024-0.108-0.033-0.169-0.033	c-0.124,0-0.264,0.035-0.388,0.052c-0.125,0.017-0.242,0.082-0.365,0.114c-0.044,0.011-0.1,0.021-0.161,0.021	c-0.073,0-0.154-0.014-0.23-0.054c0.008-0.29-0.058-0.411-0.129-0.419c-0.144-0.016-0.327-0.047-0.327-0.047l0.032-0.343	c-0.189-0.022-0.296-0.065-0.657-0.065c-0.008,0-0.015,0-0.023,0c-0.119-0.121-0.321-0.177-0.45-0.349	c-0.146-0.258-0.267-0.394-0.482-0.52c-0.047-0.027-0.077-0.084-0.114-0.127c0.013-0.02,0.026-0.04,0.039-0.06	c0.064,0.025,0.141,0.036,0.191,0.078c0.084,0.073,0.171,0.156,0.221,0.254c0.207,0.406,0.537,0.553,0.932,0.553	c0.057,0,0.116-0.003,0.176-0.009c0.002,0,0.003,0,0.005,0c0.338,0,0.476-0.115,0.476-0.115s0.311,0.063,0.458,0.123	c0.011,0.005,0.025,0.007,0.039,0.007c0.012,0,0.023-0.002,0.032-0.007c0.119-0.067,0.233-0.093,0.344-0.093	c0.225,0,0.437,0.109,0.653,0.212c0.112,0.054,0.262,0.01,0.382,0.053c0.093,0.034,0.056,0.204,0.229,0.204	c0.014,0,0.03-0.001,0.048-0.004c0.01-0.045,0.024-0.11,0.039-0.181c0.032,0.003,0.064-0.003,0.075,0.01	c0.102,0.124,0.203,0.248,0.297,0.378c0.079,0.11,0.164,0.174,0.289,0.174c0.03,0,0.062-0.004,0.097-0.011	c0.112-0.024,0.185-0.049,0.23-0.049C42.468,36.236,42.486,36.263,42.489,36.345z"/><linearGradient id="1dkCe3XM0wAy2HlTYkn64b" x1="18.447" x2="18.502" y1="13.832" y2="30.864" gradientUnits="userSpaceOnUse"><stop offset="0" stop-color="#6dc7ff"/><stop offset="1" stop-color="#e6abff"/></linearGradient><path fill="url(#1dkCe3XM0wAy2HlTYkn64b)" d="M16.641,18.453c0,0,0.469-0.688,1.25-0.625s1.328,0.203,1.672,0.484	c0.344,0.281,1.172,1.172,1.25,1.484c0.078,0.313,0.047,0.688-0.047,0.953s-0.422,0.266-0.422,0.656s0.047,0.969,0.047,0.969	l-0.469,0.156l-0.141,3.172c0,0-0.141-2.766-0.359-3.156s-0.281-0.438-0.469-0.266s-0.188,1.156-0.188,1.156s0.188-0.688-0.25-1.094	s-1.531-1.172-1.531-1.172l-0.016,0.359l-0.563-0.406c-0.031-0.297,0-0.188-0.031-0.297s0.016-0.031-0.031-0.109	s-0.266-0.703-0.266-0.703s0.25-0.438,0.344-0.75s0.094-0.313,0.094-0.313L16.641,18.453z"/><linearGradient id="1dkCe3XM0wAy2HlTYkn64c" x1="17.519" x2="17.574" y1="13.835" y2="30.867" gradientUnits="userSpaceOnUse"><stop offset="0" stop-color="#6dc7ff"/><stop offset="1" stop-color="#e6abff"/></linearGradient><path fill="url(#1dkCe3XM0wAy2HlTYkn64c)" d="M18.078,22.703l-0.25,9.531l-0.25-9.484l-0.25,6.344l-0.313-6.906c0,0,0.078-0.5,0.219-0.563	s0.344,0.125,0.344,0.125s-0.031-0.125-0.031,0.078s-0.125,0.469,0.063,0.594S18.078,22.703,18.078,22.703z"/><path fill="#fff" d="M16.953,18.969l2.609-0.063c0,0-0.281-0.625-0.781-0.734s-0.802-0.24-1.109-0.125	C17,18.297,16.953,18.969,16.953,18.969z"/><path fill="#fff" d="M19.141,21.641c0.129-0.201,0.353-0.257,0.566-0.336c0.117-0.044,0.312-0.114,0.432-0.08	c-0.04,0.28-0.078,0.602-0.384,0.72c-0.169,0.066-0.393,0.064-0.543-0.046C19.106,21.822,19.141,21.778,19.141,21.641z"/><linearGradient id="1dkCe3XM0wAy2HlTYkn64d" x1="26.792" x2="26.848" y1="13.805" y2="30.837" gradientUnits="userSpaceOnUse"><stop offset="0" stop-color="#6dc7ff"/><stop offset="1" stop-color="#e6abff"/></linearGradient><path fill="url(#1dkCe3XM0wAy2HlTYkn64d)" d="M26.125,15.875c0.026-0.204-0.187-0.329-0.375-0.283c-0.191,0.046-0.315,0.333-0.436,0.469	c-0.348,0.391-0.933,0.989-0.745,1.562c0.263-0.331,0.484-0.598,0.931-0.684c0.397-0.076,0.937-0.207,1.057,0.255	c0.062,0.238,0.02,0.569,0.037,0.815c0.075,1.129,0.211,2.264,0.311,3.393c0.166,1.873,0.533,3.733,0.447,5.617	c-0.021,0.45-0.038,0.996-0.038,1.398c0-2.34-0.109-4.658-0.024-7c0.041-1.134,0.089-2.255,0.056-3.388	c-0.015-0.515-0.056-1.635,0.441-1.927c0.416,0.209,0.742,0.349,0.81,0.861c0.062,0.463,0.029,1.125,0.344,1.484	c0.241-0.53,0.093-1.35,0.093-1.94c0-0.35,0.06-0.748-0.123-1.044c-0.391-0.631-1.097-0.899-1.783-1.002	c-0.333-0.05-0.522-0.04-0.781,0.17c-0.15,0.121-0.651,0.393-0.502,0.613c0.109,0.161,0.618,0.127,0.783,0.216	c0.238,0.127,0.53,0.571,0.529,0.852c-0.001,0.717-1.139,0.209-0.949-0.442C26.158,15.857,26.127,15.86,26.125,15.875z"/><path fill="#fff" d="M27.5,15.313c-0.427,0.122-1.105-0.637-0.281-0.563c0.428,0.039,0.929,0.178,1.172,0.569	c-0.146,0.287-0.715,0.068-0.962,0.031C27.422,15.305,27.446,15.334,27.5,15.313z"/><linearGradient id="1dkCe3XM0wAy2HlTYkn64e" x1="35.912" x2="35.967" y1="13.776" y2="30.808" gradientUnits="userSpaceOnUse"><stop offset="0" stop-color="#6dc7ff"/><stop offset="1" stop-color="#e6abff"/></linearGradient><path fill="url(#1dkCe3XM0wAy2HlTYkn64e)" d="M33.906,19c0.068-0.453-0.024-0.639,0.457-0.771c-0.046-0.138-0.052-0.28-0.082-0.417	c-0.047-0.217-0.16-0.356-0.228-0.563c-0.075-0.229-0.016-0.531,0.047-0.749c0.238-0.813,0.712-1.042,1.434-1.345	c0.732-0.307,1.382,0.141,1.911,0.634c0.343,0.321,0.532,0.812,0.523,1.274c-0.005,0.236,0.017,0.209-0.162,0.413	c-0.167,0.191-0.523,0.354-0.653,0.53c-0.118,0.159-0.199,0.639-0.178,0.844c0.041,0.392,0.458,0.301,0.457,0.684	c-0.001,0.566-0.642,0.889-0.65,1.468c-0.012,0.79-0.085,1.583-0.119,2.371c-0.033,0.765-0.069,1.52-0.069,2.289	c0,0.611,0.212,1.597-0.061,2.152c-0.307-0.485-0.027-1.438-0.195-1.997c-0.233,0.411-0.087,1.006-0.112,1.456	c-0.029,0.517-0.055,1.031-0.07,1.548c-0.021,0.714,0.108,1.804-0.181,2.461c-0.328-0.36-0.241-0.921-0.195-1.362	c0.066-0.627,0.068-1.256,0.094-1.885c0.026-0.622,0.032-1.24,0.032-1.864c0-1.103-0.001-2.2-0.056-3.299	c-0.022-0.45-0.066-0.933-0.064-1.379c0.001-0.208,0.137-0.595,0.002-0.778c-0.108-0.147-0.243-0.063-0.414-0.115	c-0.221-0.067-0.479-0.27-0.626-0.445c-0.269,0.537-0.128,1.504-0.123,2.106c-0.039-0.743-0.008-1.599-0.213-2.32	c-0.099-0.347-0.322-0.687-0.517-1.007C33.876,18.965,33.88,18.965,33.906,19z"/><path fill="#fff" d="M34.625,19.25c-0.177-0.094-0.445-0.384-0.219-0.556c0.168-0.128,0.49,0.066,0.664,0.11	c0.388,0.098,0.973,0.049,1.305,0.265c0.133,0.086,0.5,0.494,0.47,0.651c-0.092,0.479-0.695-0.128-0.853-0.266	c-0.5-0.437-0.767-0.292-1.345-0.141C34.642,19.271,34.572,19.271,34.625,19.25z"/><path fill="#fff" d="M35.062,19.938c0.01-0.012,0.197-0.434,0.376-0.376c0.182,0.058,0.158,0.33,0.156,0.469	C35.582,20.717,34.87,20.159,35.062,19.938z"/><path fill="#fff" d="M34.656,16.188c0.245-0.515,1.038-0.798,1.587-0.752c0.182,0.015,1.401,0.493,0.976,0.652	c-0.117,0.044-0.449-0.184-0.594-0.184c-0.225,0-0.418,0.152-0.624,0.221c-0.416,0.14-0.927,0.037-1.342,0.045	C34.707,16.13,34.602,16.219,34.656,16.188z"/><linearGradient id="1dkCe3XM0wAy2HlTYkn64f" x1="43.803" x2="43.858" y1="13.75" y2="30.782" gradientUnits="userSpaceOnUse"><stop offset="0" stop-color="#6dc7ff"/><stop offset="1" stop-color="#e6abff"/></linearGradient><path fill="url(#1dkCe3XM0wAy2HlTYkn64f)" d="M41.906,21.844c0.09-0.33,0.079-0.581,0.37-0.893c0.235-0.252,0.366-0.421,0.544-0.694	c0.337-0.52,1.221-0.379,1.712-0.139c0.288,0.14,0.464,0.506,0.685,0.795c0.19,0.249,0.553,0.647,0.533,0.993	c-0.011,0.196-0.172,0.372-0.227,0.562c-0.069,0.237-0.049,0.468-0.062,0.713c-0.031,0.614-0.057,1.229-0.049,1.845	c0.007,0.503-0.058,1.001-0.076,1.502c-0.212-0.752-0.028-1.606-0.143-2.377c-0.05-0.335-0.102-0.663-0.13-1.001	c-0.017-0.198,0.011-0.541-0.102-0.713c-0.107-0.164-0.267-0.235-0.425-0.116c-0.198,0.149,0.078,0.236-0.256,0.249	c-0.184,0.007-0.405-0.119-0.593-0.126c-0.175-0.007-0.347,0.035-0.527,0.02c-0.071-0.359,0.138-0.462,0.433-0.496	c0.423-0.05,0.408-0.161,0.223-0.527c-0.557,0.22-0.081-0.872-0.817-0.636c-0.261,0.084-0.678,0.486-0.658,0.782	c0.021,0.315,0.411,0.132,0.646,0.173c-0.056,0.32-0.141,0.617-0.168,0.946c-0.028,0.341,0.046,0.813-0.076,1.132	c-0.147-0.432,0.086-1.188-0.204-1.562c-0.143-0.185-0.446-0.15-0.566-0.397c0.065-0.087,0.151-0.165,0.244-0.223"/><path fill="#fff" d="M44.344,21.625c-0.054-0.246-0.284-0.842,0.125-0.837c0.196,0.003,0.56,0.353,0.689,0.493	c0.545,0.588-0.454,0.685-0.816,0.347C44.353,21.579,44.291,21.641,44.344,21.625z"/><linearGradient id="1dkCe3XM0wAy2HlTYkn64g" x1="43.562" x2="43.617" y1="13.751" y2="30.783" gradientUnits="userSpaceOnUse"><stop offset="0" stop-color="#6dc7ff"/><stop offset="1" stop-color="#e6abff"/></linearGradient><path fill="url(#1dkCe3XM0wAy2HlTYkn64g)" d="M43.062,23.938c-0.053-0.473,0.391-0.719,0.797-0.617c0.309,0.078,0.364,0.154,0.297,0.468	c-0.072,0.341-0.214,0.631-0.202,0.992c-0.119-0.188-0.15-0.437-0.211-0.655c-0.285,0.179-0.15,1.112-0.15,1.413	c-0.001,0.92,0.031,1.842,0.031,2.764c0,0.973,0.045,1.946,0.001,2.916c-0.021,0.456,0.132,1.377-0.091,1.807	c-0.319-0.462-0.16-1.227-0.16-1.78c0-0.676-0.014-1.352-0.017-2.027c-0.004-0.767,0.025-1.549-0.014-2.318	c-0.031-0.618-0.06-1.238-0.094-1.861C43.236,24.777,42.87,24.1,43.062,23.938z"/><path fill="#fff" d="M43.156,20.344c0.326-0.201,0.704-0.262,1.055-0.116c-0.261,0.445-0.692,0.334-1.093,0.218	C43.151,20.373,43.085,20.388,43.156,20.344z"/></svg>